<svg width="25" height="25" viewBox="0 0 25 25" fill="none" xmlns="http://www.w3.org/2000/svg">
<path d="M4.5 12.5542C4.5 12.8194 4.60536 13.0738 4.79289 13.2613C4.98043 13.4488 5.23478 13.5542 5.5 13.5542C5.76522 13.5542 6.01957 13.4488 6.20711 13.2613C6.39464 13.0738 6.5 12.8194 6.5 12.5542C6.5 12.289 6.39464 12.0346 6.20711 11.8471C6.01957 11.6596 5.76522 11.5542 5.5 11.5542C5.23478 11.5542 4.98043 11.6596 4.79289 11.8471C4.60536 12.0346 4.5 12.289 4.5 12.5542ZM11.5 12.5542C11.5 12.8194 11.6054 13.0738 11.7929 13.2613C11.9804 13.4488 12.2348 13.5542 12.5 13.5542C12.7652 13.5542 13.0196 13.4488 13.2071 13.2613C13.3946 13.0738 13.5 12.8194 13.5 12.5542C13.5 12.289 13.3946 12.0346 13.2071 11.8471C13.0196 11.6596 12.7652 11.5542 12.5 11.5542C12.2348 11.5542 11.9804 11.6596 11.7929 11.8471C11.6054 12.0346 11.5 12.289 11.5 12.5542ZM18.5 12.5542C18.5 12.8194 18.6054 13.0738 18.7929 13.2613C18.9804 13.4488 19.2348 13.5542 19.5 13.5542C19.7652 13.5542 20.0196 13.4488 20.2071 13.2613C20.3946 13.0738 20.5 12.8194 20.5 12.5542C20.5 12.289 20.3946 12.0346 20.2071 11.8471C20.0196 11.6596 19.7652 11.5542 19.5 11.5542C19.2348 11.5542 18.9804 11.6596 18.7929 11.8471C18.6054 12.0346 18.5 12.289 18.5 12.5542Z" stroke="#ADADAD" stroke-width="2" stroke-linecap="round" stroke-linejoin="round"/>
</svg>
