<svg width="14" height="18" viewBox="0 0 14 18" fill="none" xmlns="http://www.w3.org/2000/svg">
<path fill-rule="evenodd" clip-rule="evenodd" d="M4.49984 16.5003C4.49984 16.2793 4.58763 16.0673 4.74392 15.9111C4.9002 15.7548 5.11216 15.667 5.33317 15.667H8.6665C8.88752 15.667 9.09948 15.7548 9.25576 15.9111C9.41204 16.0673 9.49984 16.2793 9.49984 16.5003C9.49984 16.7213 9.41204 16.9333 9.25576 17.0896C9.09948 17.2459 8.88752 17.3337 8.6665 17.3337H5.33317C5.11216 17.3337 4.9002 17.2459 4.74392 17.0896C4.58763 16.9333 4.49984 16.7213 4.49984 16.5003ZM4.49984 11.8545C4.72085 11.8545 4.93281 11.9423 5.08909 12.0986C5.24537 12.2549 5.33317 12.4668 5.33317 12.6878V13.0195C5.33317 13.3312 5.58567 13.5837 5.89734 13.5837H8.10234C8.25196 13.5837 8.39546 13.5242 8.50126 13.4184C8.60706 13.3126 8.6665 13.1691 8.6665 13.0195V12.7503C8.6665 12.5293 8.7543 12.3174 8.91058 12.1611C9.06686 12.0048 9.27882 11.917 9.49984 11.917C9.72085 11.917 9.93281 12.0048 10.0891 12.1611C10.2454 12.3174 10.3332 12.5293 10.3332 12.7503V13.0195C10.3333 13.3125 10.2757 13.6026 10.1636 13.8733C10.0515 14.144 9.88719 14.39 9.68002 14.5972C9.47284 14.8043 9.22688 14.9687 8.95617 15.0807C8.68546 15.1928 8.39533 15.2504 8.10234 15.2503H5.89734C5.60435 15.2504 5.31421 15.1928 5.0435 15.0807C4.7728 14.9687 4.52683 14.8043 4.31966 14.5972C4.11248 14.39 3.94816 14.144 3.83609 13.8733C3.72402 13.6026 3.66639 13.3125 3.6665 13.0195V12.6878C3.6665 12.4668 3.7543 12.2549 3.91058 12.0986C4.06686 11.9423 4.27882 11.8545 4.49984 11.8545Z" fill="#7E9E87"/>
<path d="M8.85658 13.0388C8.97075 13.3888 9.34825 13.5838 9.68575 13.4355C11.0888 12.818 12.2361 11.7358 12.9346 10.3713C13.633 9.00682 13.8399 7.44329 13.5204 5.94408C13.2009 4.44486 12.3745 3.10155 11.1804 2.14038C9.98629 1.17921 8.49744 0.658902 6.96457 0.667087C5.43171 0.675273 3.94849 1.21145 2.76472 2.18532C1.58095 3.15919 0.768947 4.51125 0.465466 6.01379C0.161985 7.51633 0.385568 9.07756 1.09856 10.4345C1.81155 11.7915 2.97039 12.8613 4.37992 13.4638C4.71825 13.6088 5.09408 13.4105 5.20492 13.0588L5.27742 12.8271C5.38742 12.4763 5.18908 12.1055 4.85575 11.9505C3.80635 11.4631 2.95429 10.6328 2.43995 9.59632C1.92561 8.55987 1.77968 7.37913 2.02621 6.24864C2.27273 5.11816 2.89701 4.10537 3.79617 3.37717C4.69533 2.64896 5.81573 2.24878 6.97277 2.24255C8.1298 2.23633 9.25444 2.62444 10.1614 3.34293C11.0683 4.06142 11.7035 5.06743 11.9621 6.1952C12.2208 7.32297 12.0876 8.50521 11.5844 9.54714C11.0813 10.5891 10.2382 11.4285 9.19408 11.9271C8.86158 12.0855 8.66742 12.458 8.78158 12.8088L8.85658 13.0388Z" fill="#7E9E87"/>
</svg>
