<svg width="18" height="19" viewBox="0 0 18 19" fill="none" xmlns="http://www.w3.org/2000/svg">
<path d="M9.49431 18.382L9.48514 18.3837L9.42598 18.4129L9.40931 18.4162L9.39764 18.4129L9.33848 18.3837C9.32959 18.3809 9.32292 18.3823 9.31848 18.3879L9.31514 18.3962L9.30098 18.7529L9.30514 18.7695L9.31348 18.7804L9.40014 18.842L9.41264 18.8454L9.42264 18.842L9.50931 18.7804L9.51931 18.767L9.52264 18.7529L9.50848 18.397C9.50625 18.3881 9.50153 18.3831 9.49431 18.382ZM9.71514 18.2879L9.70431 18.2895L9.55014 18.367L9.54181 18.3754L9.53931 18.3845L9.55431 18.7429L9.55848 18.7529L9.56514 18.7587L9.73264 18.8362C9.7432 18.839 9.75125 18.8367 9.75681 18.8295L9.76014 18.8179L9.73181 18.3062C9.72903 18.2962 9.72348 18.2901 9.71514 18.2879ZM9.11931 18.2895C9.11564 18.2873 9.11125 18.2866 9.10706 18.2875C9.10286 18.2884 9.09919 18.291 9.09681 18.2945L9.09181 18.3062L9.06348 18.8179C9.06403 18.8279 9.06875 18.8345 9.07764 18.8379L9.09014 18.8362L9.25764 18.7587L9.26598 18.752L9.26931 18.7429L9.28348 18.3845L9.28098 18.3745L9.27264 18.3662L9.11931 18.2895Z" fill="#7E9E87"/>
<path d="M9.00008 0.666992C13.6026 0.666992 17.3334 4.39783 17.3334 9.00033C17.3334 13.6028 13.6026 17.3337 9.00008 17.3337C4.39758 17.3337 0.666748 13.6028 0.666748 9.00033C0.666748 4.39783 4.39758 0.666992 9.00008 0.666992ZM9.00008 12.3337C8.77907 12.3337 8.56711 12.4215 8.41083 12.5777C8.25455 12.734 8.16675 12.946 8.16675 13.167C8.16675 13.388 8.25455 13.6 8.41083 13.7562C8.56711 13.9125 8.77907 14.0003 9.00008 14.0003C9.22109 14.0003 9.43306 13.9125 9.58934 13.7562C9.74562 13.6 9.83341 13.388 9.83341 13.167C9.83341 12.946 9.74562 12.734 9.58934 12.5777C9.43306 12.4215 9.22109 12.3337 9.00008 12.3337ZM9.00008 4.41699C8.19891 4.41699 7.43055 4.73526 6.86403 5.30177C6.29751 5.86829 5.97925 6.63665 5.97925 7.43783C5.97925 7.65884 6.06705 7.8708 6.22333 8.02708C6.37961 8.18336 6.59157 8.27116 6.81258 8.27116C7.03359 8.27116 7.24556 8.18336 7.40184 8.02708C7.55812 7.8708 7.64591 7.65884 7.64591 7.43783C7.64619 7.19202 7.71336 6.95093 7.84023 6.7404C7.9671 6.52987 8.14889 6.35784 8.36608 6.24276C8.58328 6.12768 8.82771 6.07389 9.07316 6.08715C9.3186 6.10042 9.55581 6.18024 9.75934 6.31805C9.96287 6.45587 10.1251 6.64649 10.2285 6.86947C10.3319 7.09244 10.3727 7.33937 10.3465 7.58377C10.3203 7.82817 10.2281 8.06083 10.0797 8.2568C9.9313 8.45276 9.73238 8.60464 9.50425 8.69616C8.94091 8.92116 8.16675 9.49783 8.16675 10.4587V10.667C8.16675 10.888 8.25455 11.1 8.41083 11.2562C8.56711 11.4125 8.77907 11.5003 9.00008 11.5003C9.22109 11.5003 9.43306 11.4125 9.58934 11.2562C9.74562 11.1 9.83341 10.888 9.83341 10.667C9.83341 10.4637 9.87508 10.362 10.0509 10.2753L10.1234 10.242C10.7741 9.98024 11.3135 9.50029 11.649 8.88442C11.9846 8.26856 12.0955 7.55514 11.9627 6.86648C11.8299 6.17781 11.4616 5.55679 10.9211 5.10988C10.3806 4.66297 9.70143 4.41801 9.00008 4.41699Z" fill="#7E9E87"/>
</svg>
